# xmcd
#
# Track frame offsets:
#	150
#	11030
#	28935
#	41065
#	59218
#	75805
#	88188
#	105073
#	118945
#	136780
#	154760
#
# Disc length: 2320 seconds
#
# Revision: 0
# Processed by: cddbd v1.4PL0 Copyright (c) Steve Scherf et al.
# Submitted via: dBpowerAMP V4.0
#
DISCID=87090e0b
DTITLE=Ronnie Milsap - The Best of Ronnie Milsap
DYEAR=1900
DGENRE=Country
TTITLE0=Daydreams About Night Things
TTITLE1=She Keeps the Home Fires Burning
TTITLE2=My Heart
TTITLE3=Inside
TTITLE4=Any Day Now
TTITLE5=Please Don't Tell Me How the Story Ends
TTITLE6=Smoky Mountain Rain
TTITLE7=Don't You Ever Get Tired (of Hurting Me)?
TTITLE8=What a Difference You've Made in My Life
TTITLE9=Show Her
TTITLE10=Lost in the Fifties Tonight (In The Still of the Night)
EXTD=
EXTT0=
EXTT1=
EXTT2=
EXTT3=
EXTT4=
EXTT5=
EXTT6=
EXTT7=
EXTT8=
EXTT9=
EXTT10=
PLAYORDER=
